
        <svg xmlns="http://www.w3.org/2000/svg" xmlns:xlink="http://www.w3.org/1999/xlink" version="1.1" width="3309.278350515464" 
        height="3185.5670103092784" viewBox="0 0 3309.278350515464 3185.5670103092784">
			
			<g transform="scale(15.463917525773196) translate(10, 10)">
				<defs id="SvgjsDefs5627"></defs><g id="SvgjsG5628" featureKey="rootContainer" transform="matrix(1,0,0,1,0,0)" fill="#242c33"><rect xmlns="http://www.w3.org/2000/svg" width="194" height="186" rx="10" ry="10"></rect></g><g id="SvgjsG5629" featureKey="symbolFeature-0" transform="matrix(1.3158240816125752,0,0,1.3158240816125752,31.210111020649098,-2.211426121926955)" fill="#fb7314"><path xmlns="http://www.w3.org/2000/svg" fill="#fb7314" d="M13.942,53.831l34,20.4c1.236,0.741,2.776,0.76,4.028,0.051c1.254-0.71,2.029-2.04,2.029-3.481V57.466  l27.942,16.766c1.236,0.741,2.776,0.76,4.028,0.051c1.254-0.71,2.029-2.04,2.029-3.481V30c0-1.441-0.775-2.771-2.029-3.48  C85.359,26.173,84.68,26,84,26c-0.713,0-1.425,0.19-2.058,0.57L54,43.336V30c0-1.441-0.775-2.771-2.029-3.48  C51.359,26.173,50.68,26,50,26c-0.713,0-1.425,0.19-2.058,0.57l-34,20.4C12.737,47.694,12,48.996,12,50.401  C12,51.806,12.737,53.107,13.942,53.831z M80,37.065v26.671L57.774,50.401L80,37.065z M46,37.065v26.671L23.774,50.401L46,37.065z"></path></g><g id="SvgjsG5630" featureKey="nameFeature-0" transform="matrix(0.05104212034151864,0,0,0.05104212034151864,20.005000523965247,103.61207991461099)" fill="#242c33"><path d="M1.6 23.16 c1.96 -11.16 2.76 -15.56 8.36 -15.56 c4.12 0 4.8 2.52 4 8.56 l-3.72 0 c0.6 -4.36 0.36 -5.36 -0.84 -5.36 c-1.84 0 -2.2 1.96 -4.04 12.36 c-2.04 11.56 -2.32 13.24 -0.48 13.24 c1.32 0 1.88 -1 2.88 -6.16 l3.76 0 c-1.56 7.4 -3.04 10.16 -7.36 10.16 c-5.6 0 -4.8 -4.44 -2.56 -17.24 z M13.100000000000001 40 l5.64 -32 l4 0 l-2.4 13.6 l4 0 l2.4 -13.6 l4 0 l-5.64 32 l-4 0 l2.68 -15.2 l-4 0 l-2.68 15.2 l-4 0 z M29.6 40 l2.96 -16.8 c1.96 -11.16 2.76 -15.56 8.76 -15.56 s5.2 4.4 3.24 15.56 l-2.96 16.8 l-4 0 l1.64 -9.2 l-4 0 l-1.64 9.2 l-4 0 z M35.800000000000004 27.6 l4 0 l0.76 -4.4 c1.84 -10.4 2.16 -12.36 0.16 -12.36 s-2.32 1.96 -4.16 12.36 z M46.1 40 l5.64 -32 l6.48 0 c4.12 0 5.08 2.52 4.24 7.36 c-0.8 4.36 -1.76 6.84 -3.2 8.04 l-0.04 0.24 c0.96 0.36 0.96 2.24 0.56 6.92 l-0.88 9.44 l-4 0 l1.16 -9.44 c0.56 -4.76 0 -5.76 -1.2 -5.76 l-2.08 0 l-2.68 15.2 l-4 0 z M53.34 21.6 l2.48 0 c1.4 0 2.04 -1.4 2.92 -6.24 c0.52 -3.16 0.12 -4.16 -1.08 -4.16 l-2.48 0 z M62.6 40 l5.64 -32 l4 0 l-4.92 28 l5.2 0 l-0.72 4 l-9.2 0 z M74.7 40 l5.64 -32 l4 0 l-5.64 32 l-4 0 z M83.2 40 l5.64 -32 l9.2 0 l-0.56 3.2 l-5.2 0 l-1.84 10.4 l4.4 0 l-0.56 3.2 l-4.4 0 l-1.96 11.2 l5.2 0 l-0.72 4 l-9.2 0 z M105 40 l5.64 -32 l4 0 l-2.24 12.68 l6.24 -12.68 l4 0 l-7.48 15.2 l1.84 16.8 l-4 0 l-1.52 -14 l-2.48 14 l-4 0 z M119.9 40 l2.96 -16.8 c1.96 -11.16 2.76 -15.56 8.76 -15.56 s5.2 4.4 3.24 15.56 l-2.96 16.8 l-4 0 l1.64 -9.2 l-4 0 l-1.64 9.2 l-4 0 z M126.1 27.6 l4 0 l0.76 -4.4 c1.84 -10.4 2.16 -12.36 0.16 -12.36 s-2.32 1.96 -4.16 12.36 z M139.4 40 l2.44 -13.92 l-1.4 -18.08 l4 0 l0.24 12.32 l0.4 0 l4.56 -12.32 l4 0 l-7.8 18.08 l-2.44 13.92 l-4 0 z M150.9 40 l5.64 -32 l4 0 l-4.92 28 l5.2 0 l-0.72 4 l-9.2 0 z M165.56 23.16 c1.96 -11.16 3 -15.56 9 -15.56 s5.44 4.4 3.48 15.56 c-2.24 12.8 -3.28 17.24 -9.28 17.24 s-5.44 -4.44 -3.2 -17.24 z M169.48000000000002 36.4 c2.24 0 2.52 -1.68 4.56 -13.24 c1.84 -10.4 2.2 -12.36 -0.04 -12.36 s-2.6 1.96 -4.44 12.36 c-2.04 11.56 -2.32 13.24 -0.08 13.24 z M179.18 40 l5.64 -32 l6.48 0 c4.12 0 5.08 2.52 4.24 7.36 c-0.8 4.36 -1.76 6.84 -3.2 8.04 l-0.04 0.24 c0.96 0.36 0.96 2.24 0.56 6.92 l-0.88 9.44 l-4 0 l1.16 -9.44 c0.56 -4.76 0 -5.76 -1.2 -5.76 l-2.08 0 l-2.68 15.2 l-4 0 z M186.42000000000002 21.6 l2.48 0 c1.4 0 2.04 -1.4 2.92 -6.24 c0.52 -3.16 0.12 -4.16 -1.08 -4.16 l-2.48 0 z"></path></g><g id="SvgjsG5631" featureKey="sloganFeature-0" transform="matrix(3.125,0,0,3.125,21.500000059604645,103.5)" fill="#fb7314"><path d="M-0.48 20 l2.82 -16 l3.24 0 c2.06 0 2.54 1.26 2.12 3.68 c-0.4 2.18 -0.88 3.42 -1.6 4.02 l-0.02 0.12 c0.48 0.18 0.48 1.12 0.28 3.46 l-0.44 4.72 l-2 0 l0.58 -4.72 c0.28 -2.38 0 -2.88 -0.6 -2.88 l-1.04 0 l-1.34 7.6 l-2 0 z M3.14 10.8 l1.24 0 c0.7 0 1.02 -0.7 1.46 -3.12 c0.26 -1.58 0.06 -2.08 -0.54 -2.08 l-1.24 0 z M8.27 20 l2.82 -16 l4.6 0 l-0.28 1.6 l-2.6 0 l-0.92 5.2 l2.2 0 l-0.28 1.6 l-2.2 0 l-0.98 5.6 l2.6 0 l-0.36 2 l-4.6 0 z M16.02 20 l1.42 -16 l2.1 0 l-1.52 12.04 l0.2 0 l3.32 -12.04 l1.7 0 l-0.92 12.04 l0.2 0 l2.72 -12.04 l2.1 0 l-4.22 16 l-2.4 0 l0.34 -8.36 l-2.64 8.36 l-2.4 0 z M26.87 20 l2.82 -16 l2 0 l-2.82 16 l-2 0 z M31.62 20 l2.82 -16 l1.8 0 l0.9 9.8 l0 -0.2 l1.7 -9.6 l2 0 l-2.82 16 l-1.8 0 l-1.06 -8.8 l-0.02 0.2 l-1.52 8.6 l-2 0 z M40.77 20 l2.82 -16 l3 0 c3 0 2.62 2.2 1.66 7.58 c-1.08 6.2 -1.48 8.42 -4.48 8.42 l-3 0 z M43.13 18 l1 0 c1.12 0 1.26 -0.84 2.24 -6.42 c0.88 -5 1.06 -5.98 -0.06 -5.98 l-1 0 z"></path></g>
			</g>
		</svg>
	