
        <svg xmlns="http://www.w3.org/2000/svg" xmlns:xlink="http://www.w3.org/1999/xlink" version="1.1" width="2915.601023017903" 
        height="3153.452685421995" viewBox="0 0 2915.601023017903 3153.452685421995">
			<rect fill="#fd7014" width="2915.601023017903" height="3153.452685421995"/>
			<g transform="scale(7.672634271099744) translate(10, 10)">
				<defs id="SvgjsDefs6205"></defs><g id="SvgjsG6206" featureKey="rootContainer" transform="matrix(1,0,0,1,0,0)" fill="#ffffff"><path xmlns="http://www.w3.org/2000/svg" fill-rule="evenodd" d="M5,65 L180,0 L355, 65 L180, 10 z M5,311 L180,391 L355,306 L180, 381 z"></path></g><g id="SvgjsG6207" featureKey="symbolFeature-0" transform="matrix(2.626387647414369,0,0,2.626387647414369,49.181932606464784,95.73161654661979)" fill="#222831"><polygon xmlns="http://www.w3.org/2000/svg" fill="#222831" points="31.578,35.9 56.002,21.805 56.002,43.072 68.414,35.9 92.834,21.805 92.834,50 92.834,78.194   68.414,64.097 56.002,56.931 56.002,78.194 31.578,64.097 7.165,50 "></polygon></g><g id="SvgjsG6208" featureKey="vMvB0T-0" transform="matrix(0.041838047253066245,0,0,0.041838047253066245,174.93014563979634,89.677386819068)" fill="#fd7014"><path d="M17.43 17.65 l0.040136 2.3242 l-1.1621 0.02002 c-0.015039 0.0002539 -1.0275 0.017129 -3.0076 0.017129 c-1.0032 0 -2.2546 -0.0044532 -3.7506 -0.017402 c-2.4132 -0.021054 -4.3428 -0.54212 -5.7348 -1.549 c-1.3835 -1.0007 -2.1454 -2.4562 -2.1454 -4.0986 c0 -1.6413 0.76854 -3.1002 2.164 -4.1074 c1.383 -0.99846 3.3616 -1.531 5.7218 -1.5402 c4.441 -0.017129 6.719 0.00027344 6.7416 0.00041016 l1.1622 0.0091602 l-0.01832 2.3246 l-1.1622 -0.0091602 c-0.022364 -0.0002539 -2.2892 -0.01752 -6.7144 -0.00039062 c-3.4358 0.01334 -5.5702 1.2866 -5.5702 3.3232 c0 0.90194 0.39812 1.6473 1.1831 2.215 c0.97936 0.70836 2.4984 1.0916 4.3926 1.1081 c4.4144 0.038574 6.6758 0.00089844 6.698 0.00050782 z M34.419 8.617 l2.3476 0 l0 11.407 l-2.3476 0 l0 -4.5299 l-11.242 0 l0 4.5299 l-2.3477 0 l0 -11.407 l2.3477 0 l0 4.5299 l11.242 0 l0 -4.5299 z M48.2754 7.711 l9.1766 12.19 l-2.9508 0 l-2.566 -3.3974 l-7.3197 0 l-2.5286 3.3974 l-2.9177 0 z M46.3762 14.1556 l3.7983 0 l-1.8992 -2.5322 z M74.197 17.557 l1.162 -0.017422 l0.034786 2.3242 l-1.1621 0.017402 c-0.18088 0.002754 -0.38542 0.0058984 -0.6087 0.0058984 c-1.614 0 -4.2026 -0.16008 -5.8378 -1.7712 c-0.72798 -0.71726 -1.1865 -1.629 -1.3698 -2.72 l-4.2054 0 l-0.016602 4.4896 l-2.3246 -0.0086328 l0.037402 -10.127 l0 -1.1635 l0.0043164 0 l0 -0.0043164 l1.1612 0.0043164 l10.951 0 c1.4728 0 3.6638 0.90678 3.6638 3.4048 c0 2.4982 -2.0362 3.405 -3.4048 3.405 l-3.4826 0 c0.12543 0.4252 0.32842 0.77924 0.61734 1.064 c1.1685 1.151 3.608 1.1146 4.7804 1.0969 z M62.2314 13.0714 l10.041 -0.000019531 c0.10148 -0.0035352 0.40426 -0.041718 0.6538 -0.17971 c0.21608 -0.11955 0.43686 -0.32006 0.43686 -0.90076 c0 -0.46692 -0.15799 -0.71972 -0.56382 -0.90166 c-0.36882 -0.16531 -0.77152 -0.17865 -0.77532 -0.17865 l-9.7922 0 l0 2.1608 z M81.39699999999999 17.619 l13.59 0 l0 2.3477 l-15.938 0 l0 -11.407 l2.3477 0 l0 9.0597 z M100.67379999999999 20.02461 l-2.3246 0 l0 -11.295 l2.3246 0 l0 11.295 z M119.96699999999998 10.9512 l-13.59 0.000019531 l0 2.1863 l9.0642 0.03375 l-0.0086328 2.3478 l-9.0556 -0.03375 l0 2.1782 l13.59 0 l0 2.3477 l-15.938 0 l0 -11.407 l15.938 0 l0 2.3476 z M147.93599999999998 17.619 l0.034746 2.3244 l-1.1621 0.017402 c-0.18049 0.002754 -0.38464 0.0058984 -0.60738 0.0058984 c-1.6091 0 -4.1898 -0.15982 -5.8222 -1.768 c-0.77534 -0.7638 -1.2442 -1.7492 -1.4014 -2.9364 c-0.85432 0.12438 -1.7942 0.19199 -2.8226 0.19199 l-1.641 0 l0 4.4852 l-2.3246 0 l0 -11.295 l2.3246 0 l0 4.4853 l1.641 0 c4.7582 0 7.2478 -1.6252 7.2478 -3.2308 l0 -1.1623 l2.3246 0 l0 1.1622 c0 1.9109 -1.4137 3.8334 -4.469 4.8392 c0.06213 0.77546 0.30946 1.3688 0.75204 1.8049 c1.1652 1.1478 3.5954 1.1114 4.7634 1.0939 z M159.49539999999996 7.711 l9.1766 12.19 l-2.9508 0 l-2.566 -3.3974 l-7.3197 0 l-2.5286 3.3974 l-2.9177 0 z M157.59619999999998 14.1556 l3.7983 0 l-1.8992 -2.5322 z M183.00999999999996 8.445 l0.016758 1.1737 c0.01832 1.2629 -0.49072 2.489 -1.4333 3.4524 c-0.88466 0.90428 -2.5122 1.966 -5.367 2.2142 l-0.036758 4.6262 l-2.3476 -0.016094 l0.036484 -4.5994 c-2.2324 -0.18141 -4.09 -0.92992 -5.3086 -2.1572 c-0.97334 -0.9804 -1.4991 -2.2306 -1.4804 -3.5202 l0.017129 -1.1737 l2.3474 0.03414 l-0.017012 1.1737 c-0.0095508 0.66232 0.26668 1.2959 0.79912 1.832 c0.98028 0.98734 2.6908 1.5237 4.8134 1.507 c2.1676 -0.01582 3.8956 -0.57064 4.8658 -1.5624 c0.50916 -0.5203 0.77322 -1.1346 0.76394 -1.7765 l-0.017012 -1.1737 z M188.73699999999997 17.619 l13.59 0 l0 2.3477 l-15.938 0 l0 -11.407 l2.3477 0 l0 9.0597 z M220.62499999999997 9.649 c0.91776 0.9099 0.9102 2.226 0.89856 4.2182 c-0.00091796 0.14832 -0.0016992 0.302 -0.0023438 0.46118 c-0.0044532 1.1823 -0.0075976 2.0366 -0.13172 2.757 c-0.10568 0.6142 -0.34974 1.4995 -1.2436 2.0954 c-1.1321 0.75466 -2.8232 0.77168 -6.5282 0.8087 c-0.57862 0.0057618 -1.1122 0.010078 -1.6046 0.010078 c-2.9354 0 -4.411 -0.15537 -5.3538 -1.0922 c-0.98198 -0.9757 -0.97648 -2.4126 -0.96838 -4.5876 c0.0090234 -2.4268 0.014512 -3.8916 1.2447 -4.801 c1.0614 -0.7845 2.6028 -0.80516 5.9798 -0.85054 l0.67396 -0.0092774 c4.2088 -0.060156 5.9508 -0.085136 7.0354 0.99024 z M219.19099999999997 13.854199999999999 c0.006543 -1.1448 0.013457 -2.3288 -0.20864 -2.5488 c-0.27556 -0.27322 -1.5123 -0.33638 -3.1584 -0.33638 c-0.67736 0 -1.4242 0.010723 -2.2018 0.021836 l-0.67606 0.0092774 c-2.4194 0.032442 -4.1674 0.055976 -4.625 0.39406 c-0.2888 0.21346 -0.2935 1.4744 -0.29898 2.9346 c-0.0050976 1.3559 -0.0099414 2.6366 0.28016 2.9248 c0.4554 0.45254 2.9138 0.42782 5.2914 0.40428 c2.7302 -0.027206 4.7028 -0.046954 5.258 -0.4171 c0.32686 -0.2179 0.33104 -1.3516 0.33692 -2.9208 c0.00052734 -0.16074 0.0014453 -0.316 0.0023632 -0.46588 z M239.197 17.557 l1.162 -0.017422 l0.034786 2.3242 l-1.1621 0.017402 c-0.18088 0.002754 -0.38542 0.0058984 -0.6087 0.0058984 c-1.614 0 -4.2026 -0.16008 -5.8378 -1.7712 c-0.72798 -0.71726 -1.1865 -1.629 -1.3698 -2.72 l-4.2054 0 l-0.016602 4.4896 l-2.3246 -0.0086328 l0.037402 -10.127 l0 -1.1635 l0.0043164 0 l0 -0.0043164 l1.1612 0.0043164 l10.951 0 c1.4728 0 3.6638 0.90678 3.6638 3.4048 c0 2.4982 -2.0362 3.405 -3.4048 3.405 l-3.4826 0 c0.12543 0.4252 0.32842 0.77924 0.61734 1.064 c1.1685 1.151 3.608 1.1146 4.7804 1.0969 z M227.23139999999998 13.0714 l10.041 -0.000019531 c0.10148 -0.0035352 0.40426 -0.041718 0.6538 -0.17971 c0.21608 -0.11955 0.43686 -0.32006 0.43686 -0.90076 c0 -0.46692 -0.15799 -0.71972 -0.56382 -0.90166 c-0.36882 -0.16531 -0.77152 -0.17865 -0.77532 -0.17865 l-9.7922 0 l0 2.1608 z"></path></g><g id="SvgjsG6209" featureKey="sloganFeature-0" transform="matrix(2.5870338865499343,0,0,2.5870338865499343,-4.318018996249327,78.79800174238284)" fill="#222831"><path d="M7.1864 13.191600000000001 l-1.7207 1.2903 l1.7199 1.2804 l-1.3571 1.8228 l-4.1594 -3.0968 l4.1538 -3.115 z M16.6206 15.578800000000001 l-6.5734 0.000019531 l0 -2.375 l6.5734 0 l0 2.375 z M33.813 17.557 l1.162 -0.017422 l0.034786 2.3242 l-1.1621 0.017402 c-0.18088 0.002754 -0.38542 0.0058984 -0.6087 0.0058984 c-1.614 0 -4.2026 -0.16008 -5.8378 -1.7712 c-0.72798 -0.71726 -1.1865 -1.629 -1.3698 -2.72 l-4.2054 0 l-0.016602 4.4896 l-2.3246 -0.0086328 l0.037402 -10.127 l0 -1.1635 l0.0043164 0 l0 -0.0043164 l1.1612 0.0043164 l10.951 0 c1.4728 0 3.6638 0.90678 3.6638 3.4048 c0 2.4982 -2.0362 3.405 -3.4048 3.405 l-3.4826 0 c0.12543 0.4252 0.32842 0.77924 0.61734 1.064 c1.1685 1.151 3.608 1.1146 4.7804 1.0969 z M21.8474 13.0714 l10.041 -0.000019531 c0.10148 -0.0035352 0.40426 -0.041718 0.6538 -0.17971 c0.21608 -0.11955 0.43686 -0.32006 0.43686 -0.90076 c0 -0.46692 -0.15799 -0.71972 -0.56382 -0.90166 c-0.36882 -0.16531 -0.77152 -0.17865 -0.77532 -0.17865 l-9.7922 0 l0 2.1608 z M54.121 10.9512 l-13.59 0.000019531 l0 2.1863 l9.0642 0.03375 l-0.0086328 2.3478 l-9.0556 -0.03375 l0 2.1782 l13.59 0 l0 2.3477 l-15.938 0 l0 -11.407 l15.938 0 l0 2.3476 z M78.212 8.743 l2.9056 0 l-9.017 12.023 l-3.5212 -4.6944 l-3.5206 4.6944 l-9.0178 -12.023 l2.9058 0 l6.1122 8.1492 l2.0678 -2.7574 l-4.044 -5.3918 l2.9058 0 l2.5912 3.4548 l2.5908 -3.4548 l2.9055 0 l-4.0436 5.3918 l2.0682 2.7574 z M85.38380000000001 20.02461 l-2.3246 0 l0 -11.295 l2.3246 0 l0 11.295 z M101.84700000000001 8.593 l2.3476 0 l0 11.25 l-13.59 -7.098 l0 7.2556 l-2.3477 0 l0 -11.25 l13.59 7.098 l0 -7.2556 z M121.53900000000002 10.8272 c0.95568 0.96942 1.4718 2.2114 1.4534 3.497 c-0.02289 1.5915 -0.78998 3.0436 -2.16 4.0892 c-1.4271 1.089 -3.4354 1.6646 -5.8082 1.6646 c-4.5288 0 -6.808 -0.0667 -6.8304 -0.067344 l-1.1387 -0.03414 l0 -11.373 l7.9691 0 c3.5728 0 5.5148 1.2092 6.5148 2.2236 z M115.02440000000001 17.7304 c3.8486 0 5.5962 -1.7276 5.6208 -3.4396 c0.009414 -0.66168 -0.25962 -1.2893 -0.77796 -1.8153 c-0.9689 -0.9829 -2.6888 -1.5241 -4.843 -1.5241 l-5.6214 0 l0 6.737 c1.09 0.018965 2.963 0.041992 5.6214 0.041992 z M131.3904 13.191600000000001 l-1.7207 1.2903 l1.7199 1.2804 l-1.3571 1.8228 l-4.1594 -3.0968 l4.1538 -3.115 z M140.8246 15.578800000000001 l-6.5734 0.000019531 l0 -2.375 l6.5734 0 l0 2.375 z"></path></g>
			</g>
		</svg>
	